<svg xmlns="http://www.w3.org/2000/svg" viewBox="0 0 530 365" width="100%" height="100%">
  <path d="M 264 20 L 265 21 L 275 21 L 276 22 L 276 47 L 277 48 L 276 49 L 276 80 L 277 82 L 276 83 L 278 86 L 288 86 L 296 88 L 312 89 L 315 91 L 325 92 L 329 94 L 336 95 L 343 83 L 347 79 L 352 67 L 359 58 L 361 54 L 361 51 L 368 42 L 383 49 L 387 53 L 387 57 L 379 69 L 372 84 L 368 88 L 361 101 L 361 103 L 367 106 L 371 106 L 375 108 L 379 112 L 381 112 L 388 116 L 394 117 L 403 124 L 405 124 L 410 128 L 419 132 L 456 159 L 457 161 L 477 177 L 490 190 L 509 214 L 509 216 L 505 222 L 502 224 L 500 228 L 495 232 L 490 239 L 476 253 L 469 258 L 464 264 L 461 265 L 441 282 L 438 283 L 433 288 L 422 294 L 417 299 L 403 305 L 396 311 L 377 318 L 370 323 L 367 323 L 363 326 L 347 330 L 336 335 L 332 335 L 329 337 L 324 338 L 311 339 L 305 341 L 284 343 L 283 344 L 243 344 L 217 339 L 209 339 L 205 337 L 192 335 L 172 327 L 166 326 L 162 323 L 156 322 L 148 317 L 141 315 L 97 289 L 76 273 L 53 253 L 27 226 L 20 217 L 20 214 L 25 206 L 28 204 L 29 201 L 36 195 L 40 189 L 53 176 L 58 173 L 64 166 L 83 152 L 94 142 L 106 136 L 128 121 L 141 116 L 156 107 L 160 107 L 168 103 L 161 88 L 157 84 L 153 77 L 150 69 L 143 60 L 142 53 L 145 49 L 154 46 L 158 43 L 162 43 L 167 50 L 170 58 L 175 63 L 181 77 L 188 86 L 190 92 L 193 96 L 200 93 L 215 91 L 225 88 L 251 86 L 253 84 L 253 23 L 255 21 L 263 21 Z M 203 122 L 189 128 L 173 132 L 169 135 L 163 137 L 160 140 L 139 149 L 127 158 L 118 162 L 99 176 L 93 182 L 89 184 L 79 194 L 75 196 L 57 215 L 75 233 L 89 245 L 92 246 L 100 254 L 118 267 L 128 272 L 135 278 L 147 283 L 162 292 L 167 293 L 171 296 L 182 299 L 191 304 L 198 306 L 200 306 L 201 303 L 187 293 L 184 287 L 173 276 L 172 272 L 168 267 L 156 232 L 156 221 L 155 220 L 156 219 L 155 218 L 156 217 L 155 214 L 156 211 L 155 207 L 156 206 L 158 189 L 161 184 L 163 175 L 173 154 L 191 134 L 189 133 L 192 134 L 194 131 L 204 125 L 206 123 L 204 122 Z M 325 122 L 323 123 L 330 127 L 332 126 L 329 123 L 326 122 Z M 333 126 L 331 127 L 343 140 L 348 143 L 352 148 L 354 154 L 364 167 L 367 181 L 371 188 L 371 193 L 373 199 L 373 216 L 374 217 L 373 223 L 374 224 L 373 225 L 370 246 L 365 254 L 361 268 L 349 282 L 348 284 L 349 285 L 345 290 L 338 294 L 330 301 L 329 303 L 330 305 L 334 305 L 346 301 L 361 293 L 369 291 L 379 286 L 384 281 L 388 279 L 396 277 L 410 266 L 415 264 L 433 251 L 437 246 L 440 245 L 446 240 L 471 216 L 471 214 L 451 194 L 427 174 L 421 171 L 419 168 L 403 157 L 388 150 L 381 144 L 375 141 L 359 136 L 353 131 L 334 126 Z M 300 170 L 297 171 L 294 174 L 293 178 L 293 182 L 295 186 L 300 189 L 305 189 L 311 187 L 314 182 L 314 177 L 311 172 L 301 170 Z M 259 172 L 250 174 L 238 181 L 227 194 L 224 200 L 222 209 L 222 221 L 227 236 L 240 250 L 257 257 L 276 256 L 293 247 L 297 243 L 305 230 L 306 217 L 308 212 L 306 209 L 300 212 L 293 212 L 292 213 L 291 212 L 286 212 L 279 209 L 271 201 L 269 197 L 269 185 L 271 180 L 271 175 L 269 173 L 260 172 Z" fill="#fb7600" fill-rule="evenodd" />
</svg>